<svg xmlns="http://www.w3.org/2000/svg" xmlns:xlink="http://www.w3.org/1999/xlink" height="50" fill="none" viewBox="0 0 235 50"><a xlink:href="https://www.buymeacoffee.com/ezgif" target="_blank"><rect width="235" height="50" fill="#FD0" rx="10.776"/><path fill="#0D0C22" d="m28.846 19.583-.017-.01-.038-.011a.1.1 0 0 0 .055.02M29.085 21.297l-.019.006zM28.853 19.58l-.007-.001v.004z"/><path fill="#0D0C22" d="M28.846 19.583h.002v-.001zM29.07 21.294l.028-.015.01-.006.01-.01a.2.2 0 0 0-.048.031M28.893 19.62l-.027-.026-.018-.01q.016.027.045.036M22.069 36.258a.14.14 0 0 0-.055.043l.017-.011zM26.031 35.479c0-.025-.012-.02-.01.067q.002-.01.005-.021zM25.622 36.258a.14.14 0 0 0-.056.043l.018-.011zM19.279 36.444a.1.1 0 0 0-.058-.028l.046.024zM18.65 35.842a.2.2 0 0 0-.023-.072 1 1 0 0 1 .022.071zM15.477 21.246l.014.014.01.005z"/><path fill="#000" d="m30.505 20.415-.132-.666c-.119-.598-.388-1.163-1.001-1.379-.197-.069-.42-.099-.57-.242-.151-.143-.196-.365-.23-.57-.065-.379-.126-.757-.192-1.135-.058-.324-.103-.689-.252-.986-.193-.4-.595-.634-.995-.789a6 6 0 0 0-.626-.193c-.999-.264-2.049-.36-3.076-.416a26 26 0 0 0-3.7.062c-.916.083-1.88.184-2.75.5-.318.116-.646.255-.888.501-.296.302-.393.769-.177 1.145.154.268.415.457.692.582.36.16.737.283 1.123.365 1.075.238 2.189.331 3.287.37 1.218.05 2.437.01 3.649-.118q.45-.05.897-.119c.352-.054.577-.514.474-.834-.125-.383-.458-.531-.835-.474q-.082.014-.166.025l-.04.006q-.19.024-.383.045-.395.043-.793.07-.89.06-1.783.061-.877.002-1.752-.055a22 22 0 0 1-1.157-.107l-.114-.014-.025-.004-.119-.017a13 13 0 0 1-.724-.13.109.109 0 0 1 0-.212h.005a12 12 0 0 1 .837-.147h.002c.132-.008.264-.032.394-.048a25 25 0 0 1 3.426-.12 23 23 0 0 1 2.017.144l.136.018.092.013q.4.06.798.145c.392.085.895.113 1.07.542.055.137.08.288.11.431l.04.183.002.01.277 1.291a.236.236 0 0 1-.198.284h-.003l-.056.008-.056.007a34.32 34.32 0 0 1-1.581.168 37 37 0 0 1-3.162.127 37 37 0 0 1-4.698-.304l-.127-.017-.29-.042c-.326-.05-.649-.11-.973-.162-.393-.064-.768-.032-1.123.162-.291.159-.527.403-.675.7-.154.317-.199.661-.267 1.001-.069.34-.175.706-.135 1.055.087.753.613 1.365 1.37 1.502a39.682 39.682 0 0 0 11.342.376.484.484 0 0 1 .535.53l-.071.698-.434 4.223q-.225 2.218-.454 4.435l-.13 1.248c-.041.41-.047.833-.125 1.238-.122.636-.553 1.027-1.182 1.17q-.868.197-1.756.206c-.655.003-1.31-.026-1.965-.022-.7.004-1.556-.06-2.096-.581-.474-.458-.54-1.173-.604-1.792q-.13-1.23-.256-2.458l-.475-4.556-.307-2.947-.015-.146c-.037-.352-.286-.696-.678-.678-.336.015-.718.3-.678.678l.227 2.185.471 4.52.401 3.853q.037.369.078.739c.147 1.344 1.174 2.068 2.445 2.272.743.12 1.504.145 2.257.157.966.015 1.942.052 2.892-.123 1.408-.258 2.465-1.198 2.616-2.657l.129-1.263.428-4.18.467-4.552.214-2.086a.48.48 0 0 1 .39-.426c.403-.079.788-.213 1.074-.52.456-.487.547-1.123.386-1.764m-15.146.45c.006-.003-.005.05-.01.074 0-.037.001-.07.01-.074m.04.302c.002-.002.012.01.022.026q-.024-.023-.023-.026m.038.05c.014.024.02.04 0 0m.077.063h.002q.001.004.005.007zm13.513-.093c-.145.137-.363.201-.578.233-2.415.358-4.866.54-7.307.46-1.748-.06-3.477-.254-5.207-.498-.17-.024-.353-.055-.47-.18-.219-.236-.111-.71-.054-.995.052-.261.153-.609.463-.646.484-.057 1.047.148 1.526.22q.866.132 1.737.212c2.48.226 5.002.19 7.471-.14q.675-.09 1.346-.211c.398-.071.84-.205 1.08.207.165.28.187.657.161.974a.54.54 0 0 1-.169.364"/><path fill="#fff" d="M22.843 25.121c-.862.37-1.84.788-3.108.788a5.9 5.9 0 0 1-1.569-.216l.877 9.003a1.504 1.504 0 0 0 1.5 1.38s1.243.065 1.658.065c.446 0 1.785-.065 1.785-.065a1.504 1.504 0 0 0 1.5-1.38l.939-9.95a4 4 0 0 0-1.321-.238c-.826 0-1.492.284-2.26.613"/><path d="M46.12 30.376q1.296 0 2.28-.912 1.008-.912 1.008-2.088 0-1.2-.744-2.208-.816.408-1.608.408-1.848 0-1.848-1.152 0-.336.456-.6.456-.288 1.296-.288.864 0 1.872.504.96-1.032.96-2.328 0-1.608-1.416-2.544-1.392-.96-3-.96-.336 0-.504.024-.024.696-.12 2.232-.144 2.304-.144 7.032 0 1.824-.264 1.824-1.032 0-1.32-.288t-.288-1.656q0-.336.12-2.76.144-2.424.144-3.912t.096-2.184q-1.272.432-1.368 1.392-.096.792-.36 1.104-.24.312-.672.312-.408 0-.552-.216-.144-.24-.144-.48 0-2.088 3.24-2.88.408-1.632 1.296-1.632.36 0 .36 1.344.624-.072 1.536-.072.936 0 2.136.36 1.2.336 2.088 1.224.888.864.888 1.944 0 2.016-1.944 3.624 1.344 1.056 1.344 2.52t-.912 2.424q-1.704 1.752-4.56 1.752-1.944 0-2.784-.264-.168-.048-.36-.24-.168-.216-.168-.528 0-.504.984-.504.312 0 1.368.336t1.608.336m2.04-5.736q-.72-.6-1.368-.6-.624 0-.624.264 0 .552 1.176.552.432 0 .816-.216m3.984 4.272.144-2.688q0-2.568.24-2.808t.84-.696q.624-.48.888-.48.288 0 .36.096t.072.384q0 1.032-.456 2.088-.36 2.208-.36 3.624t.456 1.416q.552 0 1.296-.96t1.488-2.856q.216-2.4.336-2.592.144-.192.672-.696t.864-.504q.36 0 .36.912 0 .24-.144.936-.12.696-.288 1.008-.264.672-.264 4.152 0 .648.144.648.408-.024 1.128-1.008.72-1.008 1.416-2.568.72-1.56.864-1.56.168 0 .168.192 0 .672-.696 2.136-1.896 4.032-3.192 4.032-.936 0-1.416-.384-.168-.168-.168-1.032t.072-1.92q-.768 1.632-1.536 2.496-.768.84-1.728.84-.936 0-1.248-.504t-.312-1.704m8.76 0 .144-2.688q0-2.568.24-2.808t.84-.696q.624-.48.888-.48.288 0 .36.096t.072.384q0 1.032-.456 2.088-.36 2.208-.36 3.624t.336 1.416q.576 0 1.32-1.008.768-1.032 1.56-3.024.024-.528.048-1.104.024-.6.048-.864.024-.288.024-.408.024-.12.672-.648.648-.552.984-.552.36 0 .36.912 0 .24-.144.936-.12.696-.288 1.008-.192 1.704-.264 2.976 2.352-2.976 2.496-3.144.168-.168.288-.168.24 0 .24.24 0 .144-.096.312-.768 1.128-3.024 3.96-.144 2.856-.192 3.888-.12 3.048-.864 4.272-.72 1.248-2.592 1.248-.816 0-1.536-.504-.696-.48-.696-1.704 0-1.2.912-2.472.936-1.272 3.384-3.912l.144-2.616q-.816 1.8-1.608 2.736-.792.912-1.752.912t-1.224-.48-.264-1.728m4.632 2.304Q62.8 34.168 62.8 35.944q0 .816.288 1.344t.792.528q.768 0 1.08-.84t.456-3.408zm10.536-1.512.024.744q0 .672-.384.672-.576 0-1.104-.144-.528-.168-.528-.432 0-.288.12-1.896.144-1.632.144-2.448v-1.416q0-1.152.24-1.392t.84-.696q.624-.456.888-.456.288 0 .36.096t.072.36q0 1.272-.48 2.4-.12 1.368-.12 1.896 1.272-2.376 1.776-3.12.888-1.392 1.608-1.392.456 0 .84.36.408.36.408.888t-.024 1.008q0 .456-.024.72t-.024.336q.096-.192.816-1.08t.96-1.152q.264-.264.552-.528.552-.552.984-.552.456 0 .84.336.408.336.408.84 0 1.056-.24 3.12-.216 2.04-.216 2.592 0 .528.144.528.408-.024 1.128-1.008.72-1.008 1.416-2.568.72-1.56.864-1.56.168 0 .168.192 0 .672-.696 2.136-1.896 4.032-3.192 4.032-.816 0-1.296-.384-.168-.168-.168-.864 0-.72.12-2.304.144-1.608.144-2.4t-.264-.792q-.312 0-1.368 1.056-1.032 1.056-1.104 1.488-.144.816-.144 3.528 0 .672-.36.672-.552 0-1.056-.144-.48-.168-.48-.432 0-.288.144-2.376t.144-2.928q0-.864-.288-.864-.264 0-1.32 1.656-1.056 1.632-1.176 2.28-.096.648-.096 1.392m13.944 1.416q-1.344 0-2.136-1.008-.792-1.032-.792-2.328 0-2.616 1.104-3.96t2.856-1.344q.816 0 1.344.456.528.432.528 1.2 0 1.44-1.224 2.424-1.2.96-2.952 1.008.096.936.624 1.632.552.672 1.272.672t1.296-.336 1.056-.96q1.008-1.32 1.728-3 .192-.432.288-.624.12-.192.24-.192.144 0 .144.192 0 1.2-1.464 3.6-1.584 2.568-3.912 2.568m-1.272-4.128q1.416-.24 2.064-.912.672-.672.672-1.752t-.696-1.08q-.84 0-1.416 1.176-.576 1.152-.624 2.568m16.896 4.128q-.936 0-1.416-.384-.168-.168-.168-.84 0-.696.048-1.848-.624 1.56-1.248 2.328-.6.744-1.56.744t-1.68-.888q-.72-.912-.72-2.832 0-1.944 1.08-3.432 1.104-1.488 2.88-1.488.768 0 1.728 1.008.192-.264.672-.624.504-.384.84-.384.36 0 .36.912 0 .24-.144.936-.12.696-.288 1.008-.216.552-.216 3.912 0 .648.144.648.408-.024 1.128-1.008.72-1.008 1.416-2.568.72-1.56.864-1.56.168 0 .168.192 0 .672-.696 2.136-1.896 4.032-3.192 4.032m-2.928-7.68q-.672 0-1.44 1.008-.744.984-.744 2.328t.384 2.208q.408.864 1.056.864.792 0 2.328-3.96.024-.192.048-.648l.072-.72q-.216-.384-.768-.72-.528-.36-.936-.36m14.448 1.728.192-1.224q0-.264-.168-.48t-.432-.216q-.888 0-1.536 1.344-.648 1.32-.648 2.544t.504 1.992q.504.744 1.224.744.744 0 1.32-.336t1.056-.96q1.008-1.32 1.728-3 .192-.432.288-.624.12-.192.24-.192.144 0 .144.192 0 .792-.552 1.896t-.936 1.704q-.36.576-.936 1.224-1.2 1.344-3 1.344-1.368 0-2.088-.96-.696-.984-.696-2.088 0-2.736 1.176-4.152 1.2-1.44 3.024-1.44.768 0 1.2.408.456.384.456.888 0 .936-.336 1.392t-.816.456q-.408 0-.408-.456m10.08.624q.96-.312 1.32-.528l.576-.36.288-.168q.12-.072.192-.072.192 0 .192.216t-.744.768q-.744.528-1.848.96-.168 2.016-1.272 3.264T122.8 31.12q-1.488 0-2.28-1.176-.792-1.2-.792-2.784 0-1.608.936-3.024.96-1.416 2.448-1.416.672-.48 1.584-.48.936 0 1.728.984t.816 2.568m-1.56 1.224-.864.048q-1.104 0-1.872-.648-.768-.672-.768-1.464t.264-1.368q-1.032.816-1.032 3.216 0 1.152.48 2.208.48 1.032 1.512 1.032t1.608-.864q.576-.888.672-2.16m-1.488-3.984q-.384 0-.6.36-.216.336-.216.744 0 .888.6 1.44.624.552 1.44.552h.288q-.048-1.176-.408-2.136-.336-.96-1.104-.96m9.864 2.136.168-.912q-.984-.192-.984-1.08 0-.912 1.296-.912 1.224-6.144 3.048-6.144.36 0 .624.6t.264 1.752-.528 2.76q-.528 1.584-1.272 2.52l.072.168q.696.312 1.416.312.744 0 1.152-.072.432-.096.48-.096.288 0 .288.312 0 .264-.504.408-.48.12-1.128.12t-1.512-.264q.72 2.016.72 5.256 0 3.216-.72 5.136t-1.896 1.92q-.672 0-1.2-.456t-.528-1.536q0-3.792.624-8.832-.696.36-1.392.576.384 1.68.384 3.144t-.048 2.376q-.048.936-.216 2.136-.168 1.224-.432 2.136t-.768 1.536q-.504.648-1.272.648-.744 0-1.248-.504-.48-.504-.48-2.016 0-4.272.48-9.288-1.368-.552-1.368-1.968 0-.864.456-1.44.432-.576 1.104-.576.192 0 .288.024.336-2.136.624-3.504.312-1.368 1.008-2.328.72-.96 1.392-.96.768 0 .768 1.704 0 2.64-1.968 6.024.6.648 1.08 2.016.816-.216 1.728-.696m-3.552 1.896q-.24 3.288-.24 5.976t.072 3.696.336 1.008q.72 0 1.176-2.112.456-2.088.456-4.512t-.504-4.224q-.576.168-1.296.168m4.536 4.536q0 4.416.408 4.416.576 0 1.008-1.704.456-1.704.456-3.864 0-4.56-.912-5.856l-.432.432q-.528 4.032-.528 6.576m1.344-8.4q.36-.336.936-1.848.576-1.536.576-2.352 0-1.56-.288-1.56-.888 0-1.704 5.184.24.192.48.576m-3.696-5.112q0-.96-.216-.96-.384 0-.84 1.728-.432 1.728-.792 4.608 1.848-3.216 1.848-5.376m-3.696 5.544q-.672 0-.672.72t.768 1.248l.216-1.92q-.168-.048-.312-.048m1.584 2.424q.36 0 .936-.048-.336-.888-.768-1.368l-.048.096q-.096.864-.12 1.32m10.992 5.064q-1.344 0-2.136-1.008-.792-1.032-.792-2.328 0-2.616 1.104-3.96t2.856-1.344q.816 0 1.344.456.528.432.528 1.2 0 1.44-1.224 2.424-1.2.96-2.952 1.008.096.936.624 1.632.552.672 1.272.672t1.296-.336 1.056-.96q1.008-1.32 1.728-3 .192-.432.288-.624.12-.192.24-.192.144 0 .144.192 0 1.2-1.464 3.6-1.584 2.568-3.912 2.568m-1.272-4.128q1.416-.24 2.064-.912.672-.672.672-1.752t-.696-1.08q-.84 0-1.416 1.176-.576 1.152-.624 2.568m8.304 4.128q-1.344 0-2.136-1.008-.792-1.032-.792-2.328 0-2.616 1.104-3.96t2.856-1.344q.816 0 1.344.456.528.432.528 1.2 0 1.44-1.224 2.424-1.2.96-2.952 1.008.096.936.624 1.632.552.672 1.272.672t1.296-.336 1.056-.96q1.008-1.32 1.728-3 .192-.432.288-.624.12-.192.24-.192.144 0 .144.192 0 1.2-1.464 3.6-1.584 2.568-3.912 2.568m-1.272-4.128q1.416-.24 2.064-.912.672-.672.672-1.752t-.696-1.08q-.84 0-1.416 1.176-.576 1.152-.624 2.568" aria-label="Buy me a coffee" style="font-size:24px;font-family:Cookie,cursive;fill:#000"/><path fill="#000" d="M183.834 0h40.469c5.816 0 10.531 4.715 10.531 10.53v28.94c0 5.815-4.715 10.53-10.531 10.53h-40.469z" opacity=".1"/><path fill="#fff" fill-rule="evenodd" d="M209.294 22.167c-.08 0-.32-.083-.32-.083-1.761-.912-5.922-3.48-7.362-7.54-.24-.746-.8-3.812.96-5.718 1.04-1.16 2.001-1.326 2.641-1.326 1.52 0 3.121.911 4.081 2.237.96-1.408 2.401-2.237 4.081-2.237.64 0 1.601.166 2.721 1.326 1.76 1.906 1.2 5.054.96 5.717-1.44 4.143-5.681 6.63-7.362 7.54-.16.084-.32.084-.4.084" clip-rule="evenodd"/><text x="226" y="39" fill="#fff" style="font-family:Cookie,sans-serif;font-size:12px;font-weight:600" text-anchor="middle" transform="translate(-17)">686</text></a></svg>